0
SECTION
2
HEADER
9
$INSUNITS
70
4
9
$ACADVER
1
AC1014
9
$HANDSEED
5
FFFF
0
ENDSEC
0
SECTION
2
TABLES
0
TABLE
2
VPORT
5
8
100
AcDbSymbolTable
0
ENDTAB
0
TABLE
2
LTYPE
5
5
100
AcDbSymbolTable
0
LTYPE
5
14
100
AcDbSymbolTableRecord
100
AcDbLinetypeTableRecord
2
BYBLOCK
70
0
0
LTYPE
5
15
100
AcDbSymbolTableRecord
100
AcDbLinetypeTableRecord
2
BYLAYER
70
0
0
ENDTAB
0
TABLE
2
LAYER
5
2
100
AcDbSymbolTable
70
2
0
LAYER
5
50
100
AcDbSymbolTableRecord
100
AcDbLayerTableRecord
2
0
70
0
6
CONTINUOUS
0
ENDTAB
0
TABLE
2
STYLE
5
3
100
AcDbSymbolTable
70
1
0
STYLE
5
11
100
AcDbSymbolTableRecord
100
AcDbTextStyleTableRecord
2
STANDARD
70
0
0
ENDTAB
0
TABLE
2
VIEW
5
6
100
AcDbSymbolTable
70
0
0
ENDTAB
0
TABLE
2
UCS
5
7
100
AcDbSymbolTable
70
0
0
ENDTAB
0
TABLE
2
APPID
5
9
100
AcDbSymbolTable
70
2
0
APPID
5
12
100
AcDbSymbolTableRecord
100
AcDbRegAppTableRecord
2
ACAD
70
0
0
ENDTAB
0
TABLE
2
DIMSTYLE
5
A
100
AcDbSymbolTable
70
1
0
ENDTAB
0
TABLE
2
BLOCK_RECORD
5
1
100
AcDbSymbolTable
70
1
0
BLOCK_RECORD
5
1F
100
AcDbSymbolTableRecord
100
AcDbBlockTableRecord
2
*MODEL_SPACE
0
BLOCK_RECORD
5
1B
100
AcDbSymbolTableRecord
100
AcDbBlockTableRecord
2
*PAPER_SPACE
0
ENDTAB
0
ENDSEC
0
SECTION
2
BLOCKS
0
BLOCK
5
20
100
AcDbEntity
100
AcDbBlockBegin
2
*MODEL_SPACE
0
ENDBLK
5
21
100
AcDbEntity
100
AcDbBlockEnd
0
BLOCK
5
1C
100
AcDbEntity
100
AcDbBlockBegin
2
*PAPER_SPACE
0
ENDBLK
5
1D
100
AcDbEntity
100
AcDbBlockEnd
0
ENDSEC
0
SECTION
2
ENTITIES
0
CIRCLE
5
100
100
AcDbEntity
8
0
100
AcDbCircle
10
76.000000000000355
20
62.999999999999901
30
0
40
11.499999999999986
210
0
220
-0
230
1
0
LWPOLYLINE
5
101
100
AcDbEntity
8
0
100
AcDbPolyline
90
16
70
1
43
0.0
10
-129.00000000000009
20
84.999999999999943
42
0.41421356237310025
10
-130.00000000000009
20
83.999999999999929
10
-130.00000000000009
20
-99.000000000000043
42
0.41421356237309503
10
-129.00000000000009
20
-100.00000000000003
10
-101.00000000000009
20
-100.00000000000007
42
-0.41421356237309503
10
-100.00000000000009
20
-101.00000000000007
10
-100.00000000000009
20
-129.00000000000003
42
0.41421356237310025
10
-99.000000000000071
20
-130.00000000000003
10
98.999999999999901
20
-130.00000000000006
42
0.41421356237309503
10
99.999999999999886
20
-129.00000000000003
10
99.999999999999929
20
-101.00000000000007
42
-0.41421356237309503
10
100.99999999999993
20
-100.00000000000007
10
128.99999999999989
20
-100.00000000000006
42
0.41421356237309503
10
129.99999999999989
20
-99.000000000000043
10
129.99999999999991
20
83.999999999999929
42
0.41421356237310025
10
128.99999999999989
20
84.999999999999943
0
CIRCLE
5
102
100
AcDbEntity
8
0
100
AcDbCircle
10
62.499999999999915
20
-62.500000000000057
30
0
40
1.6999999999999904
210
0
220
-0
230
1
0
CIRCLE
5
103
100
AcDbEntity
8
0
100
AcDbCircle
10
93.499999999999929
20
-62.500000000000057
30
0
40
1.6999999999999993
210
0
220
-0
230
1
0
CIRCLE
5
104
100
AcDbEntity
8
0
100
AcDbCircle
10
62.499999999999915
20
-93.500000000000071
30
0
40
1.6999999999999993
210
0
220
-0
230
1
0
CIRCLE
5
105
100
AcDbEntity
8
0
100
AcDbCircle
10
77.999999999999915
20
-78.000000000000057
30
0
40
12.000000000000002
210
0
220
-0
230
1
0
CIRCLE
5
106
100
AcDbEntity
8
0
100
AcDbCircle
10
93.499999999999929
20
-93.500000000000071
30
0
40
1.6999999999999993
210
0
220
-0
230
1
0
CIRCLE
5
107
100
AcDbEntity
8
0
100
AcDbCircle
10
-93.500000000000085
20
-62.500000000000057
30
0
40
1.6999999999999904
210
0
220
-0
230
1
0
CIRCLE
5
108
100
AcDbEntity
8
0
100
AcDbCircle
10
-62.500000000000085
20
-62.500000000000057
30
0
40
1.6999999999999993
210
0
220
-0
230
1
0
CIRCLE
5
109
100
AcDbEntity
8
0
100
AcDbCircle
10
-93.500000000000085
20
-93.500000000000071
30
0
40
1.6999999999999993
210
0
220
-0
230
1
0
CIRCLE
5
110
100
AcDbEntity
8
0
100
AcDbCircle
10
-78.000000000000085
20
-78.000000000000057
30
0
40
12.000000000000002
210
0
220
-0
230
1
0
CIRCLE
5
111
100
AcDbEntity
8
0
100
AcDbCircle
10
-62.500000000000085
20
-93.500000000000071
30
0
40
1.6999999999999993
210
0
220
-0
230
1
0
CIRCLE
5
112
100
AcDbEntity
8
0
100
AcDbCircle
10
37.499999999999915
20
78.499999999999943
30
0
40
1.7000000000000171
210
0
220
-0
230
1
0
CIRCLE
5
113
100
AcDbEntity
8
0
100
AcDbCircle
10
6.499999999999897
20
78.499999999999943
30
0
40
1.6999999999999993
210
0
220
-0
230
1
0
CIRCLE
5
114
100
AcDbEntity
8
0
100
AcDbCircle
10
37.499999999999915
20
47.499999999999943
30
0
40
1.6999999999999815
210
0
220
-0
230
1
0
CIRCLE
5
115
100
AcDbEntity
8
0
100
AcDbCircle
10
21.999999999999904
20
62.999999999999943
30
0
40
11.999999999999993
210
0
220
-0
230
1
0
CIRCLE
5
116
100
AcDbEntity
8
0
100
AcDbCircle
10
6.499999999999897
20
47.499999999999943
30
0
40
1.6999999999999993
210
0
220
-0
230
1
0
CIRCLE
5
117
100
AcDbEntity
8
0
100
AcDbCircle
10
92.499999999999915
20
-107.50000000000006
30
0
40
1.6999999999999993
210
0
220
-0
230
1
0
CIRCLE
5
118
100
AcDbEntity
8
0
100
AcDbCircle
10
30.833333333333268
20
-107.50000000000006
30
0
40
1.6999999999999993
210
0
220
-0
230
1
0
CIRCLE
5
119
100
AcDbEntity
8
0
100
AcDbCircle
10
-30.83333333333341
20
-107.50000000000006
30
0
40
1.6999999999999993
210
0
220
-0
230
1
0
CIRCLE
5
120
100
AcDbEntity
8
0
100
AcDbCircle
10
-92.500000000000085
20
-107.50000000000006
30
0
40
1.6999999999999993
210
0
220
-0
230
1
0
CIRCLE
5
121
100
AcDbEntity
8
0
100
AcDbCircle
10
92.499999999999915
20
-122.50000000000006
30
0
40
1.6999999999999993
210
0
220
-0
230
1
0
CIRCLE
5
122
100
AcDbEntity
8
0
100
AcDbCircle
10
30.833333333333268
20
-122.50000000000006
30
0
40
1.6999999999999993
210
0
220
-0
230
1
0
CIRCLE
5
123
100
AcDbEntity
8
0
100
AcDbCircle
10
-30.83333333333341
20
-122.50000000000006
30
0
40
1.6999999999999993
210
0
220
-0
230
1
0
CIRCLE
5
124
100
AcDbEntity
8
0
100
AcDbCircle
10
-92.500000000000085
20
-122.50000000000006
30
0
40
1.6999999999999993
210
0
220
-0
230
1
0
CIRCLE
5
125
100
AcDbEntity
8
0
100
AcDbCircle
10
122.49999999999991
20
-92.500000000000057
30
0
40
1.6999999999999993
210
0
220
-0
230
1
0
CIRCLE
5
126
100
AcDbEntity
8
0
100
AcDbCircle
10
122.49999999999991
20
-35.833333333333393
30
0
40
1.6999999999999993
210
0
220
-0
230
1
0
CIRCLE
5
127
100
AcDbEntity
8
0
100
AcDbCircle
10
122.49999999999991
20
20.833333333333279
30
0
40
1.6999999999999993
210
0
220
-0
230
1
0
CIRCLE
5
128
100
AcDbEntity
8
0
100
AcDbCircle
10
122.49999999999991
20
77.499999999999943
30
0
40
1.6999999999999993
210
0
220
-0
230
1
0
CIRCLE
5
129
100
AcDbEntity
8
0
100
AcDbCircle
10
107.49999999999991
20
-92.500000000000057
30
0
40
1.6999999999999993
210
0
220
-0
230
1
0
CIRCLE
5
130
100
AcDbEntity
8
0
100
AcDbCircle
10
107.49999999999991
20
-35.833333333333393
30
0
40
1.6999999999999993
210
0
220
-0
230
1
0
CIRCLE
5
131
100
AcDbEntity
8
0
100
AcDbCircle
10
107.49999999999991
20
20.833333333333279
30
0
40
1.6999999999999993
210
0
220
-0
230
1
0
CIRCLE
5
132
100
AcDbEntity
8
0
100
AcDbCircle
10
107.49999999999991
20
77.499999999999943
30
0
40
1.6999999999999993
210
0
220
-0
230
1
0
CIRCLE
5
133
100
AcDbEntity
8
0
100
AcDbCircle
10
-107.50000000000009
20
-92.500000000000057
30
0
40
1.6999999999999993
210
0
220
-0
230
1
0
CIRCLE
5
134
100
AcDbEntity
8
0
100
AcDbCircle
10
-107.50000000000009
20
-35.833333333333393
30
0
40
1.6999999999999993
210
0
220
-0
230
1
0
CIRCLE
5
135
100
AcDbEntity
8
0
100
AcDbCircle
10
-107.50000000000009
20
20.833333333333279
30
0
40
1.6999999999999993
210
0
220
-0
230
1
0
CIRCLE
5
136
100
AcDbEntity
8
0
100
AcDbCircle
10
-107.50000000000009
20
77.499999999999943
30
0
40
1.6999999999999993
210
0
220
-0
230
1
0
CIRCLE
5
137
100
AcDbEntity
8
0
100
AcDbCircle
10
-122.50000000000009
20
-92.500000000000057
30
0
40
1.6999999999999993
210
0
220
-0
230
1
0
CIRCLE
5
138
100
AcDbEntity
8
0
100
AcDbCircle
10
-122.50000000000009
20
-35.833333333333393
30
0
40
1.6999999999999993
210
0
220
-0
230
1
0
CIRCLE
5
139
100
AcDbEntity
8
0
100
AcDbCircle
10
-122.50000000000009
20
20.833333333333279
30
0
40
1.6999999999999993
210
0
220
-0
230
1
0
CIRCLE
5
140
100
AcDbEntity
8
0
100
AcDbCircle
10
-122.50000000000009
20
77.499999999999943
30
0
40
1.6999999999999993
210
0
220
-0
230
1
0
ENDSEC
0
SECTION
2
OBJECTS
0
DICTIONARY
5
C
100
AcDbDictionary
3
ACAD_GROUP
350
D
3
ACAD_MLINESTYLE
350
17
0
DICTIONARY
5
D
100
AcDbDictionary
0
DICTIONARY
5
1A
330
C
100
AcDbDictionary
0
DICTIONARY
5
17
100
AcDbDictionary
0
ENDSEC
0
EOF
