0
SECTION
2
HEADER
9
$INSUNITS
70
4
9
$ACADVER
1
AC1014
9
$HANDSEED
5
FFFF
0
ENDSEC
0
SECTION
2
TABLES
0
TABLE
2
VPORT
5
8
100
AcDbSymbolTable
0
ENDTAB
0
TABLE
2
LTYPE
5
5
100
AcDbSymbolTable
0
LTYPE
5
14
100
AcDbSymbolTableRecord
100
AcDbLinetypeTableRecord
2
BYBLOCK
70
0
0
LTYPE
5
15
100
AcDbSymbolTableRecord
100
AcDbLinetypeTableRecord
2
BYLAYER
70
0
0
ENDTAB
0
TABLE
2
LAYER
5
2
100
AcDbSymbolTable
70
2
0
LAYER
5
50
100
AcDbSymbolTableRecord
100
AcDbLayerTableRecord
2
0
70
0
6
CONTINUOUS
0
ENDTAB
0
TABLE
2
STYLE
5
3
100
AcDbSymbolTable
70
1
0
STYLE
5
11
100
AcDbSymbolTableRecord
100
AcDbTextStyleTableRecord
2
STANDARD
70
0
0
ENDTAB
0
TABLE
2
VIEW
5
6
100
AcDbSymbolTable
70
0
0
ENDTAB
0
TABLE
2
UCS
5
7
100
AcDbSymbolTable
70
0
0
ENDTAB
0
TABLE
2
APPID
5
9
100
AcDbSymbolTable
70
2
0
APPID
5
12
100
AcDbSymbolTableRecord
100
AcDbRegAppTableRecord
2
ACAD
70
0
0
ENDTAB
0
TABLE
2
DIMSTYLE
5
A
100
AcDbSymbolTable
70
1
0
ENDTAB
0
TABLE
2
BLOCK_RECORD
5
1
100
AcDbSymbolTable
70
1
0
BLOCK_RECORD
5
1F
100
AcDbSymbolTableRecord
100
AcDbBlockTableRecord
2
*MODEL_SPACE
0
BLOCK_RECORD
5
1B
100
AcDbSymbolTableRecord
100
AcDbBlockTableRecord
2
*PAPER_SPACE
0
ENDTAB
0
ENDSEC
0
SECTION
2
BLOCKS
0
BLOCK
5
20
100
AcDbEntity
100
AcDbBlockBegin
2
*MODEL_SPACE
0
ENDBLK
5
21
100
AcDbEntity
100
AcDbBlockEnd
0
BLOCK
5
1C
100
AcDbEntity
100
AcDbBlockBegin
2
*PAPER_SPACE
0
ENDBLK
5
1D
100
AcDbEntity
100
AcDbBlockEnd
0
ENDSEC
0
SECTION
2
ENTITIES
0
CIRCLE
5
100
100
AcDbEntity
8
0
100
AcDbCircle
10
4.5578314864401412e-14
20
115.00000000000009
30
0
40
11.500000000000002
210
-5.4738221262688167e-48
220
1.9050884639523277e-63
230
1
0
CIRCLE
5
101
100
AcDbEntity
8
0
100
AcDbCircle
10
-39.49999999999995
20
94.741000000000099
30
0
40
2.4365000000000001
210
0
220
0
230
1
0
CIRCLE
5
102
100
AcDbEntity
8
0
100
AcDbCircle
10
-83.999999999999943
20
124.00000000000011
30
0
40
1.6999999999999993
210
5.4738221262688167e-48
220
-1.9050884639523274e-63
230
1
0
CIRCLE
5
103
100
AcDbEntity
8
0
100
AcDbCircle
10
-68.499999999999957
20
108.50000000000009
30
0
40
11.000000000000005
210
5.4738221262688167e-48
220
-1.9050884639523277e-63
230
1
0
CIRCLE
5
104
100
AcDbEntity
8
0
100
AcDbCircle
10
-82.499999999999972
20
112.0000000000001
30
0
40
1.4365000000000037
210
5.4738221262688167e-48
220
-1.9050884639523274e-63
230
1
0
CIRCLE
5
105
100
AcDbEntity
8
0
100
AcDbCircle
10
-52.999999999999943
20
93.000000000000099
30
0
40
1.6999999999999993
210
5.4738221262688167e-48
220
-1.9050884639523274e-63
230
1
0
CIRCLE
5
106
100
AcDbEntity
8
0
100
AcDbCircle
10
-122.49999999999997
20
92.500000000000128
30
0
40
1.6999999999999993
210
5.4738221262688167e-48
220
-1.9050884639523274e-63
230
1
0
CIRCLE
5
107
100
AcDbEntity
8
0
100
AcDbCircle
10
-52.999999999999936
20
124.00000000000009
30
0
40
1.6999999999999993
210
5.4738221262688167e-48
220
-1.9050884639523274e-63
230
1
0
LWPOLYLINE
5
108
100
AcDbEntity
8
0
100
AcDbPolyline
90
4
70
1
43
0.0
10
-44.041630560342561
20
111.61522368914986
42
0.99999998946328783
10
-38.384776310850171
20
105.95836943965749
10
-26.363961030678876
20
117.97918471982879
42
0.99999999999999989
10
-32.020815280171242
20
123.63603896932118
0
CIRCLE
5
109
100
AcDbEntity
8
0
100
AcDbCircle
10
-83.999999999999972
20
93.000000000000114
30
0
40
1.6999999999999993
210
5.4738221262688167e-48
220
-1.9050884639523274e-63
230
1
0
CIRCLE
5
110
100
AcDbEntity
8
0
100
AcDbCircle
10
-111.49999999999997
20
83.000000000000128
30
0
40
1.4365000000000037
210
5.4738221262688167e-48
220
-1.9050884639523274e-63
230
1
0
LWPOLYLINE
5
111
100
AcDbEntity
8
0
100
AcDbPolyline
90
52
70
1
43
0.0
10
101.11803398874994
20
100.00000000000006
42
0.21342176528337348
10
100.37267799625
20
99.6666666666667
42
-1.0572796962674231
10
99.6666666666667
20
100.37267799625
42
0.21342176528338849
10
100.00000000000003
20
101.11803398874994
10
100.00000000000003
20
129.00000000000006
42
0.41421356237310542
10
99.000000000000057
20
130.00000000000006
10
25.242640687119344
20
130.00000000000006
42
0.668178637919284
10
24.535533905932795
20
128.2928932188135
10
25.386385847128004
20
127.4420412776183
42
0.21342176528340101
10
26.14913438421825
20
127.15069726131908
42
-1.0572796962674058
10
26.149134384218261
20
126.15224646383332
42
0.21342176528338122
10
25.386385847128015
20
125.86090244753409
10
24.139097552462303
20
124.61361415286837
42
0.21342176528338197
10
23.847753536163093
20
123.85086561577809
42
-1.0572796962743087
10
22.849302738677704
20
123.85086561578458
42
0.21342176528339821
10
22.557958722388424
20
124.61361415287865
10
17.464466094222317
20
129.7071067811774
42
0.19891236738302595
10
16.757359313026548
20
130.00000000000006
10
-16.757359313026456
20
130.00000000000006
42
0.19891236738303456
10
-17.46446609422221
20
129.70710678117743
10
-22.557958722407502
20
124.61361415289784
42
0.21342176528340887
10
-22.849302738677615
20
123.8508656157846
42
-1.0572796962743485
10
-23.847753536163005
20
123.8508656157781
42
0.21342176528338924
10
-24.139097552462225
20
124.61361415286834
10
-25.386385847127929
20
125.86090244753413
42
0.21342176528339371
10
-26.149134384218161
20
126.15224646383334
42
-1.0572796962674058
10
-26.149134384218154
20
127.1506972613191
42
0.21342176528340076
10
-25.386385847127908
20
127.44204127761833
10
-24.535533905932713
20
128.29289321881353
42
0.66817863791930976
10
-25.242640687119259
20
130.00000000000006
10
-98.999999999999943
20
130.00000000000011
42
0.41421356237309503
10
-99.999999999999943
20
129.00000000000011
10
-99.999999999999972
20
101.11803398875
42
0.21342176528338849
10
-99.666666666666629
20
100.37267799625008
42
-1.0572796962674231
10
-100.37267799624993
20
99.666666666666771
42
0.21342176528338849
10
-101.11803398874986
20
100.00000000000013
10
-128.99999999999994
20
100.00000000000011
42
0.41421356237309503
10
-129.99999999999994
20
99.000000000000114
10
-129.99999999999997
20
80.000000000000114
42
0.41421356237309503
10
-128.99999999999997
20
79.000000000000114
10
-110.41421356237306
20
79.000000000000085
42
0.19891236737965803
10
-109.70710678118651
20
79.292893218813532
10
-102.2928932188134
20
86.707106781186639
42
-0.19891236737965801
10
-101.58578643762688
20
87.000000000000057
10
101.58578643762694
20
87.000000000000014
42
-0.19891236737965801
10
102.29289321881348
20
86.707106781186539
10
109.70710678118658
20
79.292893218813461
42
0.19891236737966128
10
110.41421356237313
20
79
10
129.00000000000003
20
79.000000000000028
42
0.41421356237309503
10
130.00000000000003
20
80.000000000000014
10
130.00000000000003
20
99.000000000000028
42
0.41421356237310542
10
129.00000000000003
20
100.00000000000001
0
CIRCLE
5
112
100
AcDbEntity
8
0
100
AcDbCircle
10
111.50000000000004
20
83.000000000000043
30
0
40
1.4365000000000037
210
5.4738221262688167e-48
220
-1.9050884639523274e-63
230
1
0
CIRCLE
5
113
100
AcDbEntity
8
0
100
AcDbCircle
10
84.000000000000043
20
93.000000000000057
30
0
40
1.6999999999999993
210
5.4738221262688167e-48
220
-1.9050884639523274e-63
230
1
0
LWPOLYLINE
5
114
100
AcDbEntity
8
0
100
AcDbPolyline
90
4
70
1
43
0.0
10
38.384776310850263
20
105.95836943965747
42
0.99999999999999989
10
44.041630560342668
20
111.61522368914984
10
32.020815280171341
20
123.63603896932113
42
0.99999999999999989
10
26.363961030678968
20
117.97918471982877
0
CIRCLE
5
115
100
AcDbEntity
8
0
100
AcDbCircle
10
53.000000000000028
20
124.00000000000006
30
0
40
1.6999999999999993
210
5.4738221262688167e-48
220
-1.9050884639523274e-63
230
1
0
CIRCLE
5
116
100
AcDbEntity
8
0
100
AcDbCircle
10
122.50000000000003
20
92.500000000000028
30
0
40
1.6999999999999993
210
5.4738221262688167e-48
220
-1.9050884639523274e-63
230
1
0
CIRCLE
5
117
100
AcDbEntity
8
0
100
AcDbCircle
10
53.000000000000014
20
93.000000000000057
30
0
40
1.6999999999999993
210
5.4738221262688167e-48
220
-1.9050884639523274e-63
230
1
0
CIRCLE
5
118
100
AcDbEntity
8
0
100
AcDbCircle
10
82.500000000000028
20
112.00000000000004
30
0
40
1.4365000000000037
210
5.4738221262688167e-48
220
-1.9050884639523274e-63
230
1
0
CIRCLE
5
119
100
AcDbEntity
8
0
100
AcDbCircle
10
68.500000000000043
20
108.50000000000006
30
0
40
11.000000000000005
210
5.4738221262688167e-48
220
-1.9050884639523277e-63
230
1
0
CIRCLE
5
120
100
AcDbEntity
8
0
100
AcDbCircle
10
84.000000000000057
20
124.00000000000006
30
0
40
1.6999999999999993
210
5.4738221262688167e-48
220
-1.9050884639523274e-63
230
1
0
CIRCLE
5
121
100
AcDbEntity
8
0
100
AcDbCircle
10
39.500000000000036
20
94.741000000000085
30
0
40
2.4365000000000001
210
0
220
-0
230
1
0
CIRCLE
5
122
100
AcDbEntity
8
0
100
AcDbCircle
10
25.787000000000031
20
95.500000000000085
30
0
40
1.6999999999999993
210
5.4738221262688167e-48
220
-1.9050884639523274e-63
230
1
0
CIRCLE
5
123
100
AcDbEntity
8
0
100
AcDbCircle
10
-25.786999999999956
20
95.500000000000099
30
0
40
1.6999999999999993
210
5.4738221262688167e-48
220
-1.9050884639523274e-63
230
1
0
ENDSEC
0
SECTION
2
OBJECTS
0
DICTIONARY
5
C
100
AcDbDictionary
3
ACAD_GROUP
350
D
3
ACAD_MLINESTYLE
350
17
0
DICTIONARY
5
D
100
AcDbDictionary
0
DICTIONARY
5
1A
330
C
100
AcDbDictionary
0
DICTIONARY
5
17
100
AcDbDictionary
0
ENDSEC
0
EOF
