0
SECTION
2
HEADER
9
$INSUNITS
70
4
9
$ACADVER
1
AC1014
9
$HANDSEED
5
FFFF
0
ENDSEC
0
SECTION
2
TABLES
0
TABLE
2
VPORT
5
8
100
AcDbSymbolTable
0
ENDTAB
0
TABLE
2
LTYPE
5
5
100
AcDbSymbolTable
0
LTYPE
5
14
100
AcDbSymbolTableRecord
100
AcDbLinetypeTableRecord
2
BYBLOCK
70
0
0
LTYPE
5
15
100
AcDbSymbolTableRecord
100
AcDbLinetypeTableRecord
2
BYLAYER
70
0
0
ENDTAB
0
TABLE
2
LAYER
5
2
100
AcDbSymbolTable
70
2
0
LAYER
5
50
100
AcDbSymbolTableRecord
100
AcDbLayerTableRecord
2
0
70
0
6
CONTINUOUS
0
ENDTAB
0
TABLE
2
STYLE
5
3
100
AcDbSymbolTable
70
1
0
STYLE
5
11
100
AcDbSymbolTableRecord
100
AcDbTextStyleTableRecord
2
STANDARD
70
0
0
ENDTAB
0
TABLE
2
VIEW
5
6
100
AcDbSymbolTable
70
0
0
ENDTAB
0
TABLE
2
UCS
5
7
100
AcDbSymbolTable
70
0
0
ENDTAB
0
TABLE
2
APPID
5
9
100
AcDbSymbolTable
70
2
0
APPID
5
12
100
AcDbSymbolTableRecord
100
AcDbRegAppTableRecord
2
ACAD
70
0
0
ENDTAB
0
TABLE
2
DIMSTYLE
5
A
100
AcDbSymbolTable
70
1
0
ENDTAB
0
TABLE
2
BLOCK_RECORD
5
1
100
AcDbSymbolTable
70
1
0
BLOCK_RECORD
5
1F
100
AcDbSymbolTableRecord
100
AcDbBlockTableRecord
2
*MODEL_SPACE
0
BLOCK_RECORD
5
1B
100
AcDbSymbolTableRecord
100
AcDbBlockTableRecord
2
*PAPER_SPACE
0
ENDTAB
0
ENDSEC
0
SECTION
2
BLOCKS
0
BLOCK
5
20
100
AcDbEntity
100
AcDbBlockBegin
2
*MODEL_SPACE
0
ENDBLK
5
21
100
AcDbEntity
100
AcDbBlockEnd
0
BLOCK
5
1C
100
AcDbEntity
100
AcDbBlockBegin
2
*PAPER_SPACE
0
ENDBLK
5
1D
100
AcDbEntity
100
AcDbBlockEnd
0
ENDSEC
0
SECTION
2
ENTITIES
0
LWPOLYLINE
5
100
100
AcDbEntity
8
0
100
AcDbPolyline
90
54
70
1
43
0.0
10
-11.459954330727694
20
115.95887785334456
42
1.0871664488171906
10
11.459954330727786
20
115.95887785334455
42
-0.22070110148986571
10
11.749365317430609
20
116.74936531743064
10
20.378679656456917
20
125.37867965645695
42
-0.41421356237691015
10
21.792893218839243
20
125.37867965644776
10
22.557958722388417
20
124.61361415287863
42
-0.21342176528339354
10
22.849302738677704
20
123.8508656157846
42
1.0572796962743463
10
23.847753536163097
20
123.8508656157781
42
-0.21342176528338566
10
24.139097552462303
20
124.61361415286837
10
25.386385847128025
20
125.86090244753409
42
-0.21342176528338125
10
26.149134384218261
20
126.15224646383332
42
1.0572796962674058
10
26.14913438421825
20
127.15069726131908
42
-0.21342176528340098
10
25.386385847128004
20
127.4420412776183
10
24.621320343559692
20
128.20710678118661
42
-0.41421356237309875
10
24.621320343559692
20
129.62132034355972
10
24.707106781186596
20
129.70710678118661
42
-0.19891236737965465
10
25.414213562373149
20
130.00000000000006
10
99.000000000000057
20
130.00000000000003
42
-0.41421356237310542
10
100.00000000000003
20
129.00000000000006
10
100.00000000000001
20
101.11803398874994
42
-0.21342176528338533
10
99.6666666666667
20
100.37267799625002
42
1.0572796962674085
10
100.37267799625
20
99.6666666666667
42
-0.21342176528337348
10
101.11803398874994
20
100.00000000000006
10
129.00000000000003
20
100.00000000000003
42
-0.41421356237310542
10
130.00000000000003
20
99.000000000000028
10
130.00000000000003
20
80.000000000000014
42
-0.41421356237309503
10
129.00000000000003
20
79.000000000000028
10
110.41421356237313
20
79
42
-0.19891236737965962
10
109.70710678118658
20
79.292893218813447
10
102.29289321881346
20
86.707106781186553
42
0.19891236737965801
10
101.58578643762694
20
87.000000000000014
10
-101.58578643762682
20
87.000000000000085
42
0.19891236737966128
10
-102.2928932188134
20
86.707106781186639
10
-109.70710678118651
20
79.292893218813532
42
-0.19891236737965801
10
-110.41421356237306
20
79.000000000000085
10
-128.99999999999997
20
79.000000000000114
42
-0.41421356237309503
10
-129.99999999999997
20
80.000000000000114
10
-129.99999999999997
20
99.000000000000114
42
-0.41421356237309503
10
-128.99999999999994
20
100.00000000000013
10
-101.11803398874986
20
100.00000000000013
42
-0.21342176528338508
10
-100.37267799624993
20
99.666666666666799
42
1.05727969626741
10
-99.666666666666629
20
100.37267799625008
42
-0.21342176528338846
10
-99.999999999999972
20
101.11803398875
10
-99.999999999999929
20
129.00000000000011
42
-0.41421356237309503
10
-98.999999999999943
20
130.00000000000011
10
-25.414213562373003
20
130.00000000000006
42
-0.19891236737965962
10
-24.707106781186464
20
129.70710678118661
10
-23.914213562373053
20
128.91421356237316
10
-25.823401871576728
20
127.00502525316951
42
2.4142135623730736
10
-25.823401871576745
20
126.29791847198297
10
-23.702081528013398
20
124.17659812841953
42
2.4142135623954375
10
-22.994974746831453
20
124.17659812842415
10
-21.085786437652594
20
126.08578643765271
10
-11.749365317430518
20
116.74936531743066
42
-0.22070110148986713
0
CIRCLE
5
101
100
AcDbEntity
8
0
100
AcDbCircle
10
39.500000000000036
20
94.741000000000085
30
0
40
2.4365000000000001
210
0
220
-0
230
1
0
CIRCLE
5
102
100
AcDbEntity
8
0
100
AcDbCircle
10
84.000000000000057
20
124.00000000000006
30
0
40
1.6999999999999993
210
5.4738221262688167e-48
220
-1.9050884639523274e-63
230
1
0
CIRCLE
5
103
100
AcDbEntity
8
0
100
AcDbCircle
10
68.500000000000043
20
108.50000000000006
30
0
40
11.063500000000007
210
5.4738221262688167e-48
220
-1.9050884639523274e-63
230
1
0
CIRCLE
5
104
100
AcDbEntity
8
0
100
AcDbCircle
10
82.500000000000028
20
112.00000000000004
30
0
40
1.4365000000000037
210
5.4738221262688167e-48
220
-1.9050884639523274e-63
230
1
0
CIRCLE
5
105
100
AcDbEntity
8
0
100
AcDbCircle
10
53.000000000000014
20
93.000000000000057
30
0
40
1.6999999999999993
210
5.4738221262688167e-48
220
-1.9050884639523274e-63
230
1
0
CIRCLE
5
106
100
AcDbEntity
8
0
100
AcDbCircle
10
122.50000000000003
20
92.500000000000057
30
0
40
1.6999999999999993
210
5.4738221262688167e-48
220
-1.9050884639523274e-63
230
1
0
CIRCLE
5
107
100
AcDbEntity
8
0
100
AcDbCircle
10
53.000000000000028
20
124.00000000000006
30
0
40
1.6999999999999993
210
5.4738221262688167e-48
220
-1.9050884639523274e-63
230
1
0
LWPOLYLINE
5
108
100
AcDbEntity
8
0
100
AcDbPolyline
90
4
70
1
43
0.0
10
38.384776310850256
20
105.95836943965745
10
26.363961030678972
20
117.97918471982879
42
-0.99999999999999989
10
32.020815280171341
20
123.63603896932116
10
44.041630500738023
20
111.61522374875449
42
-1.0000000105367122
0
CIRCLE
5
109
100
AcDbEntity
8
0
100
AcDbCircle
10
84.000000000000043
20
93.000000000000057
30
0
40
1.6999999999999993
210
5.4738221262688167e-48
220
-1.9050884639523274e-63
230
1
0
CIRCLE
5
110
100
AcDbEntity
8
0
100
AcDbCircle
10
111.50000000000004
20
83.000000000000043
30
0
40
1.4365000000000037
210
5.4738221262688167e-48
220
-1.9050884639523274e-63
230
1
0
CIRCLE
5
111
100
AcDbEntity
8
0
100
AcDbCircle
10
-111.49999999999997
20
83.000000000000128
30
0
40
1.4365000000000037
210
5.4738221262688167e-48
220
-1.9050884639523274e-63
230
1
0
CIRCLE
5
112
100
AcDbEntity
8
0
100
AcDbCircle
10
-83.999999999999972
20
93.000000000000114
30
0
40
1.6999999999999993
210
5.4738221262688167e-48
220
-1.9050884639523274e-63
230
1
0
LWPOLYLINE
5
113
100
AcDbEntity
8
0
100
AcDbPolyline
90
4
70
1
43
0.0
10
-26.363961030678873
20
117.97918471982879
10
-38.384776310850171
20
105.95836943965749
42
-0.99999999999999989
10
-44.041630560342561
20
111.61522368914986
10
-32.020815220566604
20
123.63603902892579
42
-0.99999998946328783
0
CIRCLE
5
114
100
AcDbEntity
8
0
100
AcDbCircle
10
-52.999999999999936
20
124.00000000000009
30
0
40
1.6999999999999993
210
5.4738221262688167e-48
220
-1.9050884639523274e-63
230
1
0
CIRCLE
5
115
100
AcDbEntity
8
0
100
AcDbCircle
10
-122.49999999999997
20
92.500000000000128
30
0
40
1.6999999999999993
210
5.4738221262688167e-48
220
-1.9050884639523274e-63
230
1
0
CIRCLE
5
116
100
AcDbEntity
8
0
100
AcDbCircle
10
-52.999999999999943
20
93.000000000000099
30
0
40
1.6999999999999993
210
5.4738221262688167e-48
220
-1.9050884639523274e-63
230
1
0
CIRCLE
5
117
100
AcDbEntity
8
0
100
AcDbCircle
10
-82.499999999999972
20
112.0000000000001
30
0
40
1.4365000000000037
210
5.4738221262688167e-48
220
-1.9050884639523274e-63
230
1
0
CIRCLE
5
118
100
AcDbEntity
8
0
100
AcDbCircle
10
-68.499999999999957
20
108.5000000000001
30
0
40
11.063500000000007
210
5.4738221262688167e-48
220
-1.9050884639523274e-63
230
1
0
CIRCLE
5
119
100
AcDbEntity
8
0
100
AcDbCircle
10
-83.999999999999943
20
124.00000000000011
30
0
40
1.6999999999999993
210
5.4738221262688167e-48
220
-1.9050884639523274e-63
230
1
0
CIRCLE
5
120
100
AcDbEntity
8
0
100
AcDbCircle
10
-39.49999999999995
20
94.741000000000099
30
0
40
2.4365000000000001
210
0
220
0
230
1
0
CIRCLE
5
121
100
AcDbEntity
8
0
100
AcDbCircle
10
3.7441336100667003e-14
20
92.500000000000028
30
0
40
1.7000000000000002
210
0
220
-0
230
1
0
CIRCLE
5
122
100
AcDbEntity
8
0
100
AcDbCircle
10
25.787000000000031
20
95.500000000000085
30
0
40
1.6999999999999993
210
5.4738221262688167e-48
220
-1.9050884639523274e-63
230
1
0
CIRCLE
5
123
100
AcDbEntity
8
0
100
AcDbCircle
10
-25.786999999999956
20
95.500000000000099
30
0
40
1.6999999999999993
210
5.4738221262688167e-48
220
-1.9050884639523274e-63
230
1
0
ENDSEC
0
SECTION
2
OBJECTS
0
DICTIONARY
5
C
100
AcDbDictionary
3
ACAD_GROUP
350
D
3
ACAD_MLINESTYLE
350
17
0
DICTIONARY
5
D
100
AcDbDictionary
0
DICTIONARY
5
1A
330
C
100
AcDbDictionary
0
DICTIONARY
5
17
100
AcDbDictionary
0
ENDSEC
0
EOF
