0
SECTION
2
HEADER
9
$INSUNITS
70
4
9
$ACADVER
1
AC1014
9
$HANDSEED
5
FFFF
0
ENDSEC
0
SECTION
2
TABLES
0
TABLE
2
VPORT
5
8
100
AcDbSymbolTable
0
ENDTAB
0
TABLE
2
LTYPE
5
5
100
AcDbSymbolTable
0
LTYPE
5
14
100
AcDbSymbolTableRecord
100
AcDbLinetypeTableRecord
2
BYBLOCK
70
0
0
LTYPE
5
15
100
AcDbSymbolTableRecord
100
AcDbLinetypeTableRecord
2
BYLAYER
70
0
0
ENDTAB
0
TABLE
2
LAYER
5
2
100
AcDbSymbolTable
70
2
0
LAYER
5
50
100
AcDbSymbolTableRecord
100
AcDbLayerTableRecord
2
0
70
0
6
CONTINUOUS
0
ENDTAB
0
TABLE
2
STYLE
5
3
100
AcDbSymbolTable
70
1
0
STYLE
5
11
100
AcDbSymbolTableRecord
100
AcDbTextStyleTableRecord
2
STANDARD
70
0
0
ENDTAB
0
TABLE
2
VIEW
5
6
100
AcDbSymbolTable
70
0
0
ENDTAB
0
TABLE
2
UCS
5
7
100
AcDbSymbolTable
70
0
0
ENDTAB
0
TABLE
2
APPID
5
9
100
AcDbSymbolTable
70
2
0
APPID
5
12
100
AcDbSymbolTableRecord
100
AcDbRegAppTableRecord
2
ACAD
70
0
0
ENDTAB
0
TABLE
2
DIMSTYLE
5
A
100
AcDbSymbolTable
70
1
0
ENDTAB
0
TABLE
2
BLOCK_RECORD
5
1
100
AcDbSymbolTable
70
1
0
BLOCK_RECORD
5
1F
100
AcDbSymbolTableRecord
100
AcDbBlockTableRecord
2
*MODEL_SPACE
0
BLOCK_RECORD
5
1B
100
AcDbSymbolTableRecord
100
AcDbBlockTableRecord
2
*PAPER_SPACE
0
ENDTAB
0
ENDSEC
0
SECTION
2
BLOCKS
0
BLOCK
5
20
100
AcDbEntity
100
AcDbBlockBegin
2
*MODEL_SPACE
0
ENDBLK
5
21
100
AcDbEntity
100
AcDbBlockEnd
0
BLOCK
5
1C
100
AcDbEntity
100
AcDbBlockBegin
2
*PAPER_SPACE
0
ENDBLK
5
1D
100
AcDbEntity
100
AcDbBlockEnd
0
ENDSEC
0
SECTION
2
ENTITIES
0
CIRCLE
5
100
100
AcDbEntity
8
0
100
AcDbCircle
10
-122.52734091138939
20
122.50000000000045
30
0
40
1.6999999999999993
210
9.6339170460710421e-63
220
-4.9303806576313238e-32
230
1
0
CIRCLE
5
101
100
AcDbEntity
8
0
100
AcDbCircle
10
122.47265908861064
20
122.50000000000045
30
0
40
1.6999999999999993
210
9.6339170460710421e-63
220
-4.9303806576313238e-32
230
1
0
SPLINE
5
102
100
AcDbEntity
8
0
100
AcDbSpline
70
4
71
5
72
13
73
7
74
0
42
0.000000001
43
0.0000000001
44
0.0000000001
40
0
40
0
40
0
40
0
40
0
40
0
40
0.5
40
1
40
1
40
1
40
1
40
1
40
1
41
1
41
1
41
1
41
1
41
1
41
1
41
1
10
-111.0273409113894
20
136.00000000000048
30
0
10
-117.2773409113894
20
136.00000000000048
30
0
10
-123.5273409113894
20
136.00000000000048
30
0
10
-136.02734091138939
20
136.00000000000048
30
0
10
-136.02734091138939
20
123.50000000000048
30
0
10
-136.02734091138939
20
117.25000000000048
30
0
10
-136.02734091138939
20
111.00000000000048
30
0
0
LINE
5
103
100
AcDbEntity
8
0
100
AcDbLine
10
-136.02734091138939
20
111.00000000000045
30
0
11
-136.02734091138939
21
-110.99999999999955
31
0
0
SPLINE
5
104
100
AcDbEntity
8
0
100
AcDbSpline
70
4
71
5
72
13
73
7
74
0
42
0.000000001
43
0.0000000001
44
0.0000000001
40
-1
40
-1
40
-1
40
-1
40
-1
40
-1
40
-0.5
40
0
40
0
40
0
40
0
40
0
40
0
41
1
41
1
41
1
41
1
41
1
41
1
41
1
10
-136.02734091138939
20
-110.99999999999955
30
0
10
-136.02734091138939
20
-117.24999999999955
30
0
10
-136.02734091138939
20
-123.49999999999955
30
0
10
-136.02734091138939
20
-135.99999999999955
30
0
10
-123.5273409113894
20
-135.99999999999955
30
0
10
-117.2773409113894
20
-135.99999999999955
30
0
10
-111.0273409113894
20
-135.99999999999955
30
0
0
LINE
5
105
100
AcDbEntity
8
0
100
AcDbLine
10
-111.0273409113894
20
-135.99999999999955
30
0
11
110.97265908861063
21
-135.99999999999955
31
0
0
SPLINE
5
106
100
AcDbEntity
8
0
100
AcDbSpline
70
4
71
5
72
13
73
7
74
0
42
0.000000001
43
0.0000000001
44
0.0000000001
40
0
40
0
40
0
40
0
40
0
40
0
40
0.5
40
1
40
1
40
1
40
1
40
1
40
1
41
1
41
1
41
1
41
1
41
1
41
1
41
1
10
110.97265908861063
20
-135.99999999999955
30
0
10
117.22265908861063
20
-135.99999999999955
30
0
10
123.47265908861063
20
-135.99999999999955
30
0
10
135.97265908861064
20
-135.99999999999955
30
0
10
135.97265908861064
20
-123.49999999999955
30
0
10
135.97265908861064
20
-117.24999999999955
30
0
10
135.97265908861064
20
-110.99999999999955
30
0
0
LINE
5
107
100
AcDbEntity
8
0
100
AcDbLine
10
135.97265908861064
20
-110.99999999999953
30
0
11
135.97265908861064
21
111.00000000000048
31
0
0
SPLINE
5
108
100
AcDbEntity
8
0
100
AcDbSpline
70
4
71
5
72
13
73
7
74
0
42
0.000000001
43
0.0000000001
44
0.0000000001
40
-1
40
-1
40
-1
40
-1
40
-1
40
-1
40
-0.5
40
0
40
0
40
0
40
0
40
0
40
0
41
1
41
1
41
1
41
1
41
1
41
1
41
1
10
135.97265908861064
20
111.00000000000048
30
0
10
135.97265908861064
20
117.25000000000048
30
0
10
135.97265908861064
20
123.50000000000048
30
0
10
135.97265908861064
20
136.00000000000048
30
0
10
123.47265908861063
20
136.00000000000048
30
0
10
117.22265908861063
20
136.00000000000048
30
0
10
110.97265908861063
20
136.00000000000048
30
0
0
LINE
5
109
100
AcDbEntity
8
0
100
AcDbLine
10
110.97265908861063
20
136.00000000000048
30
0
11
-111.0273409113894
21
136.00000000000048
31
0
0
CIRCLE
5
110
100
AcDbEntity
8
0
100
AcDbCircle
10
122.47265908861064
20
-122.49999999999956
30
0
40
1.6999999999999993
210
9.6339170460710421e-63
220
-4.9303806576313238e-32
230
1
0
CIRCLE
5
111
100
AcDbEntity
8
0
100
AcDbCircle
10
-122.52734091138939
20
-122.49999999999956
30
0
40
1.6999999999999993
210
9.6339170460710421e-63
220
-4.9303806576313238e-32
230
1
0
ENDSEC
0
SECTION
2
OBJECTS
0
DICTIONARY
5
C
100
AcDbDictionary
3
ACAD_GROUP
350
D
3
ACAD_MLINESTYLE
350
17
0
DICTIONARY
5
D
100
AcDbDictionary
0
DICTIONARY
5
1A
330
C
100
AcDbDictionary
0
DICTIONARY
5
17
100
AcDbDictionary
0
ENDSEC
0
EOF
